# xmcd CD database file
#
# Track frame offsets:
#	150
#	15900
#	26090
#	42702
#	55757
#	71780
#	87790
#	103227
#	114045
#	129795
#	140905
#	155712
#	171512
#	191952
#	219634
#	239080
#	258140
#	276662
#
# Disc length: 3915 seconds
#
# Revision: 0
# Processed by: cddbd v1.5.2PL0 Copyright (c) Steve Scherf et al.
# Submitted via: CDex 1.70beta2
#
DISCID=150f4912
DTITLE=Lowe, Mundell - Lateef, Yusef - Satan in High Heels - Lost in Sound
DYEAR=1961
DGENRE=Jazz
TTITLE0=Satan In High Heels
TTITLE1=Montage
TTITLE2=Lost And Lonely
TTITLE3=East Side Drive
TTITLE4=Coffee Coffee
TTITLE5=Lake In The Woods
TTITLE6=From Mundy On
TTITLE7=Long Knife
TTITLE8=Blues For A Stripper
TTITLE9=Pattern Of Evil
TTITLE10=Outside Blues
TTITLE11=Soul blues
TTITLE12=Blue Rocky
TTITLE13=Dexterity
TTITLE14=Trudy's gelight
TTITLE15=Introlude
TTITLE16=Train Stop
TTITLE17=Big Foot
EXTD=YEAR: 1961
EXTT0=
EXTT1=
EXTT2=
EXTT3=
EXTT4=
EXTT5=
EXTT6=
EXTT7=
EXTT8=
EXTT9=
EXTT10=
EXTT11=
EXTT12=
EXTT13=
EXTT14=
EXTT15=
EXTT16=
EXTT17=
PLAYORDER=
